<svg id="Layer_1" data-name="Layer 1" xmlns="http://www.w3.org/2000/svg" viewBox="0 0 1210 365.94"><defs><style>.cls-1{fill:#004a7f;}</style></defs><path class="cls-1" d="M17.61,5.71,61.17,116.37,104.54,5.71h17.61L68.4,137.31H53.94L0,5.71Z" transform="translate(0 -2)"/><path class="cls-1" d="M152.36,139.16a34.93,34.93,0,0,1-12.79-2.31,32,32,0,0,1-10.28-6.4,30.17,30.17,0,0,1-6.86-9.54,28.37,28.37,0,0,1-2.5-12,25.07,25.07,0,0,1,3-12.14,27.66,27.66,0,0,1,8.44-9.36,43.51,43.51,0,0,1,13-6.12,57.6,57.6,0,0,1,16.41-2.22A79.81,79.81,0,0,1,175,80.41a64.48,64.48,0,0,1,12.79,3.52V76.14q0-11.85-6.68-18.63t-18.9-6.76q-14.65,0-30.77,11.31L126,51.49q18.72-12.6,37.63-12.6,19.1,0,29.75,10.19T204,77.81v39.48c0,3.83,1.73,5.8,5.19,5.93v14.09c-1.73.25-3.15.43-4.27.56a34.43,34.43,0,0,1-3.52.18,10.39,10.39,0,0,1-7.69-2.87,11.85,11.85,0,0,1-3.43-7l-.37-6.86a41.7,41.7,0,0,1-16.4,13.25A50.34,50.34,0,0,1,152.36,139.16Zm4.27-12.23a40.55,40.55,0,0,0,16.22-3.24,26.83,26.83,0,0,0,11.4-8.62c2.34-2.35,3.52-4.76,3.52-7.23V93.57a67.19,67.19,0,0,0-24.67-4.64q-12.22,0-19.92,5.19t-7.69,13.53a18.39,18.39,0,0,0,1.57,7.6,18,18,0,0,0,4.45,6.12,21.2,21.2,0,0,0,6.77,4.08,23.34,23.34,0,0,0,8.35,1.48Z" transform="translate(0 -2)"/><path class="cls-1" d="M230.58,2h16.31V112.29q0,5.37,2.88,8.43t8.06,3.06a21.19,21.19,0,0,0,4.82-.65,39.25,39.25,0,0,0,5.19-1.57l2.59,13.16a54.76,54.76,0,0,1-9.64,2.78,50.69,50.69,0,0,1-9.82,1.11q-9.45,0-14.92-5.38t-5.47-15Z" transform="translate(0 -2)"/><path class="cls-1" d="M283.59,2H299.9V112.29q0,5.37,2.88,8.43t8.06,3.06a21.19,21.19,0,0,0,4.82-.65,39.25,39.25,0,0,0,5.19-1.57l2.59,13.16a54.66,54.66,0,0,1-9.63,2.78,50.79,50.79,0,0,1-9.83,1.11q-9.45,0-14.92-5.38t-5.47-15Z" transform="translate(0 -2)"/><path class="cls-1" d="M379.1,139.16a49.26,49.26,0,0,1-20-4,47.54,47.54,0,0,1-15.57-10.84,49.45,49.45,0,0,1-10.1-16,53.54,53.54,0,0,1,0-38.64,48.91,48.91,0,0,1,10.2-16,48.27,48.27,0,0,1,15.66-10.84,49.46,49.46,0,0,1,20-4,47.1,47.1,0,0,1,44.95,30.67,52,52,0,0,1,3.42,18.63c0,1.36,0,2.6-.09,3.71a18.81,18.81,0,0,1-.28,2.59H347a37.57,37.57,0,0,0,3.34,13.16,33.42,33.42,0,0,0,17.33,16.87,30,30,0,0,0,12,2.41,32.06,32.06,0,0,0,8.71-1.2,38.58,38.58,0,0,0,8-3.25,27.65,27.65,0,0,0,6.58-5,20.75,20.75,0,0,0,4.36-6.68l14.08,3.9a35.38,35.38,0,0,1-6.58,9.82,43.38,43.38,0,0,1-9.64,7.69,49.07,49.07,0,0,1-12.14,5.1A52.13,52.13,0,0,1,379.1,139.16Zm33.18-56.72a34.82,34.82,0,0,0-3.43-12.69,34,34,0,0,0-7.23-9.92,33.14,33.14,0,0,0-34.57-6.39A31.41,31.41,0,0,0,357,59.92a32.9,32.9,0,0,0-7,9.92,36.26,36.26,0,0,0-3.25,12.6Z" transform="translate(0 -2)"/><path class="cls-1" d="M447.45,163.63c1.6.25,3.21.43,4.81.56s2.85.18,3.71.18a7.87,7.87,0,0,0,4-1,11.11,11.11,0,0,0,3.52-4,70.46,70.46,0,0,0,4-8.25q2.24-5.28,5.56-13.81L432.1,40.55H449l33,82.12,30-82.12h15.57l-47.1,122.16a28.31,28.31,0,0,1-8.62,11.39q-6,4.92-16.59,4.92a32.7,32.7,0,0,1-3.43-.19,42.94,42.94,0,0,1-4.35-.74Z" transform="translate(0 -2)"/><path class="cls-1" d="M641.88,138.24a56,56,0,0,1-25.3-5.66,62.32,62.32,0,0,1-19.55-15,68.18,68.18,0,0,1-12.61-21.41A70.59,70.59,0,0,1,580,71.51a68.38,68.38,0,0,1,4.7-25.21A69.57,69.57,0,0,1,597.77,25a62.89,62.89,0,0,1,19.74-14.75,56.34,56.34,0,0,1,24.75-5.47,54.18,54.18,0,0,1,25.2,5.84,64.62,64.62,0,0,1,19.47,15.29A71,71,0,0,1,704,71.69a68.38,68.38,0,0,1-4.73,25.21,69.35,69.35,0,0,1-13,21.23,62.42,62.42,0,0,1-19.65,14.64A56.27,56.27,0,0,1,641.88,138.24Zm-45-66.73a58.32,58.32,0,0,0,3.22,19.37,53.62,53.62,0,0,0,9.17,16.59A44.27,44.27,0,0,0,623.53,119a40.16,40.16,0,0,0,18.57,4.26A38.9,38.9,0,0,0,661,118.68a46.18,46.18,0,0,0,14.18-11.86,53,53,0,0,0,8.89-16.59,59.15,59.15,0,0,0-.18-38.09,51.72,51.72,0,0,0-9.27-16.5,46.69,46.69,0,0,0-14.27-11.4,41.81,41.81,0,0,0-37.17.19A45.57,45.57,0,0,0,609,36.11a53.31,53.31,0,0,0-9,16.49,58.26,58.26,0,0,0-3.16,18.91Z" transform="translate(0 -2)"/><path class="cls-1" d="M828.17,103.39a31.37,31.37,0,0,1-3.06,13.9A32.28,32.28,0,0,1,816.77,128a38,38,0,0,1-12.24,6.86,45.07,45.07,0,0,1-14.92,2.41H727.15V5.71h65.43a26.21,26.21,0,0,1,12.42,3,31,31,0,0,1,9.45,7.7,35.53,35.53,0,0,1,6,10.75,36.12,36.12,0,0,1,2.13,12.14,35,35,0,0,1-4.91,18.16,30.13,30.13,0,0,1-14,12.42,33.1,33.1,0,0,1,17.89,12.33A35,35,0,0,1,828.17,103.39ZM743.83,20.16V64.1h41.89a18.65,18.65,0,0,0,8.15-1.77,20.12,20.12,0,0,0,6.4-4.72,23.1,23.1,0,0,0,5.83-15.39,25.6,25.6,0,0,0-1.48-8.71,23.31,23.31,0,0,0-4-7,17.55,17.55,0,0,0-6.12-4.64,18.24,18.24,0,0,0-7.69-1.67Zm67.47,80.27a24.15,24.15,0,0,0-1.58-8.62,24.82,24.82,0,0,0-4.26-7.33,20.12,20.12,0,0,0-6.4-5,18,18,0,0,0-8.15-1.85H743.83v45.22h45.78A19.63,19.63,0,0,0,798.1,121a23.49,23.49,0,0,0,6.86-4.91,22.7,22.7,0,0,0,6.34-15.66Z" transform="translate(0 -2)"/><path class="cls-1" d="M944.38,119.52q-17.42,18.72-40,18.72A52.7,52.7,0,0,1,880,132.49a64.29,64.29,0,0,1-19.37-15.1A72.67,72.67,0,0,1,847.72,96,67.36,67.36,0,0,1,843,71.14a69.78,69.78,0,0,1,17.43-46.43,60.32,60.32,0,0,1,19.45-14.55,56.24,56.24,0,0,1,24.47-5.38q19.08,0,31.41,8a52.8,52.8,0,0,1,18.82,20.76l-12.79,8.9Q935.85,31,926,25.44a44,44,0,0,0-22-5.57,38,38,0,0,0-18.17,4.36A45,45,0,0,0,872,35.72a53,53,0,0,0-8.9,16.5,60.15,60.15,0,0,0-3.15,19.37,56,56,0,0,0,3.52,19.92A54.68,54.68,0,0,0,873.1,108a45,45,0,0,0,14.46,11.22,40.76,40.76,0,0,0,18.16,4.07q21.51,0,38.74-20.76V84.3H916V71.69h42.45v65.62H944.38Z" transform="translate(0 -2)"/><path class="cls-1" d="M982.38,5.71l39.85,68.58,40.23-68.58h18.16l-50,83.59v48h-16.68V88.93L964,5.71Z" transform="translate(0 -2)"/><path class="cls-1" d="M1115.47,36.85V137.31h-16.68V5.71h13l81.56,102.5V5.89H1210V137.31h-14.09Z" transform="translate(0 -2)"/><path class="cls-1" d="M366.11,191.74l44.29,112.5,44.09-112.5h17.9l-54.65,133.8H403.05l-54.84-133.8Z" transform="translate(0 -2)"/><path class="cls-1" d="M531,327.42a50.1,50.1,0,0,1-20.35-4.05,48,48,0,0,1-15.83-11A50.26,50.26,0,0,1,484.55,296a53.19,53.19,0,0,1-3.68-19.69,52.57,52.57,0,0,1,3.68-19.6,49.26,49.26,0,0,1,46.64-31.28,47.85,47.85,0,0,1,45.7,31.19,52.79,52.79,0,0,1,3.48,18.94c0,1.38,0,2.64-.09,3.77A22.51,22.51,0,0,1,580,282H498.4a38.31,38.31,0,0,0,3.39,13.38,34.25,34.25,0,0,0,7.35,10.36,33.86,33.86,0,0,0,10.27,6.78A30.53,30.53,0,0,0,531.56,315a32.28,32.28,0,0,0,8.86-1.22,38.11,38.11,0,0,0,8.1-3.3,27.79,27.79,0,0,0,6.69-5.09,20.55,20.55,0,0,0,4.43-6.78l14.33,4a36.4,36.4,0,0,1-6.69,10,44.2,44.2,0,0,1-9.8,7.82,50.71,50.71,0,0,1-12.35,5.19A52.77,52.77,0,0,1,531,327.42Zm33.73-57.66a35.66,35.66,0,0,0-3.48-12.91,34.51,34.51,0,0,0-7.35-10.08,33.68,33.68,0,0,0-35.15-6.5,31.84,31.84,0,0,0-10.27,6.59,33.48,33.48,0,0,0-7.16,10.08,37.22,37.22,0,0,0-3.3,12.82Z" transform="translate(0 -2)"/><path class="cls-1" d="M650.47,241.68a42.6,42.6,0,0,0-22,6.41A32.67,32.67,0,0,0,615,264.86v60.68H598.46V227.17h15.45V250a50.35,50.35,0,0,1,13.38-16.87q8.3-6.67,17.72-6.69h3.2a12.15,12.15,0,0,1,2.26.19Z" transform="translate(0 -2)"/><path class="cls-1" d="M666.68,208.7V188h16.58V208.7Zm0,116.84V227.17h16.58v98.37Z" transform="translate(0 -2)"/><path class="cls-1" d="M714.92,325.54V251.67H701.54v-13h13.38V225.1q0-18.28,8.1-28.65t22.05-10.36a42,42,0,0,1,11.5,1.6,39.19,39.19,0,0,1,10.17,4.43l-4.14,12.25a21.39,21.39,0,0,0-6.5-3,27.25,27.25,0,0,0-7.64-1.13q-8.3,0-12.62,6.22t-4.34,18.09v14.13h26.2v13H731.5v73.87Z" transform="translate(0 -2)"/><path class="cls-1" d="M780.69,352.49a84.4,84.4,0,0,0,9,.56,7.07,7.07,0,0,0,3.2-.75,10.48,10.48,0,0,0,3.4-3.58,60.13,60.13,0,0,0,4.33-8.3q2.45-5.46,6-14.88L765,227.17h17.15l33.55,83.48,30.52-83.48h15.83L813.85,351.35q-3.39,8.86-9.8,12.72A28.59,28.59,0,0,1,789,367.94c-1.39,0-2.77-.07-4.15-.19a25,25,0,0,1-4.14-.75Z" transform="translate(0 -2)"/></svg>